<svg width="20" height="20" viewBox="0 0 20 20" fill="none" xmlns="http://www.w3.org/2000/svg">
<path d="M13.75 5.41675C13.75 4.92429 13.653 4.43666 13.4645 3.98169C13.2761 3.52671 12.9999 3.11332 12.6517 2.7651C12.3034 2.41688 11.89 2.14065 11.4351 1.9522C10.9801 1.76374 10.4925 1.66675 10 1.66675C9.50754 1.66675 9.01991 1.76374 8.56494 1.9522C8.10997 2.14066 7.69657 2.41688 7.34835 2.7651C7.00013 3.11332 6.72391 3.52671 6.53545 3.98169C6.347 4.43666 6.25 4.92429 6.25 5.41675" stroke="white" stroke-width="1.5" stroke-linecap="round"/>
<path d="M3.63955 8.59689C3.84285 6.97049 5.2254 5.75 6.86445 5.75H13.1355C14.7746 5.75 16.1571 6.97049 16.3604 8.59689L17.0271 13.9302C17.2696 15.87 15.7571 17.5833 13.8022 17.5833H6.19779C4.24292 17.5833 2.73041 15.87 2.97288 13.9302L3.63955 8.59689Z" stroke="white" stroke-width="1.5"/>
</svg>
