<svg width="20" height="24" viewBox="0 0 20 24" fill="none" xmlns="http://www.w3.org/2000/svg">
<path d="M8.64269 24C6.32786 24 4.22627 23.5159 2.66556 22.6148C1.0436 21.6784 0.150252 20.3622 0.150299 18.9086C0.150299 17.1858 1.41461 15.4678 3.6191 14.195C5.57983 13.063 8.07897 12.3807 10.6563 12.2739C13.2456 12.1665 15.6175 12.6533 17.3344 13.6445C18.9564 14.5809 19.8497 15.8972 19.8497 17.3507C19.8497 19.0735 18.5853 20.7915 16.3809 22.0643C14.4201 23.1963 11.921 23.8786 9.34371 23.9854C9.1082 23.9952 8.8743 24 8.64269 24ZM11.3504 13.1234C8.81763 13.1234 6.14074 13.7417 4.05321 14.9469C2.12463 16.0604 1.01852 17.5043 1.01852 18.9086C1.01852 20.0389 1.7576 21.0881 3.09963 21.863C6.37867 23.7561 12.1419 23.5092 15.9467 21.3124C17.8753 20.199 18.9814 18.755 18.9814 17.3507C18.9814 16.2204 18.2423 15.1712 16.9003 14.3964C15.4203 13.5419 13.4341 13.1234 11.3504 13.1234Z" fill="url(#paint0_linear_29_5366)"/>
<path d="M9.04411 22.3945C7.39022 22.3945 5.88652 22.0474 4.76738 21.4012C3.58304 20.7174 2.93082 19.7505 2.93082 18.6784C2.93082 17.4174 3.84511 16.1662 5.43933 15.2458C6.83864 14.4379 8.62069 13.951 10.4572 13.8749C12.3062 13.7982 14.002 14.1474 15.2326 14.8578C16.417 15.5416 17.0692 16.5086 17.0692 17.5806C17.0693 18.8417 16.1549 20.0928 14.5607 21.0133C13.1614 21.8212 11.3793 22.308 9.54282 22.3841C9.37533 22.3911 9.20883 22.3945 9.04411 22.3945ZM10.9516 14.7279C9.19003 14.7279 7.32703 15.1585 5.87344 15.9977C4.55513 16.7589 3.79908 17.7359 3.79908 18.6784C3.79908 19.4272 4.29713 20.1272 5.20149 20.6493C7.47671 21.9629 11.4806 21.7886 14.1265 20.2614C15.4448 19.5002 16.2009 18.5231 16.2009 17.5806C16.2009 16.8318 15.7028 16.1319 14.7985 15.6098C13.7732 15.0178 12.3964 14.7279 10.9516 14.7279Z" fill="url(#paint1_linear_29_5366)"/>
<path d="M9.45352 20.7931C8.49291 20.7931 7.57219 20.5937 6.86921 20.1878C6.12249 19.7567 5.7113 19.139 5.7113 18.4484C5.7113 17.6491 6.27563 16.8648 7.25958 16.2967C9.01524 15.2831 11.5941 15.1842 13.1308 16.0714C13.8775 16.5025 14.2887 17.1202 14.2887 17.8107C14.2887 18.61 13.7243 19.3943 12.7404 19.9624C11.7879 20.5124 10.5928 20.7931 9.45352 20.7931ZM10.5596 16.3424C9.56129 16.3424 8.50107 16.5826 7.69365 17.0487C6.9856 17.4575 6.57952 17.9677 6.57952 18.4485C6.57952 18.9192 6.97318 19.2453 7.30332 19.4359C8.55343 20.1577 10.8445 20.0545 12.3062 19.2105C13.0143 18.8017 13.4204 18.2916 13.4204 17.8108C13.4204 17.34 13.0268 17.014 12.6966 16.8233C12.137 16.5002 11.3686 16.3424 10.5596 16.3424Z" fill="url(#paint2_linear_29_5366)"/>
<path d="M15.9637 4.6422C15.8648 2.98255 15.2468 1.80434 14.3233 1.26031L14.3235 1.25966L13.7303 0.917188C13.6176 0.852453 12.0159 -0.0517185 10.5508 0.00232834C9.6911 0.0340627 8.82659 0.467938 8.10626 0.968328C6.94025 1.77828 6.00743 2.8783 5.36393 4.14383C4.53265 5.77864 4.02167 7.6415 4.02167 9.36866C4.02167 10.7446 4.34698 11.8308 4.89917 12.5576L6.971 15.6288C7.35899 16.2039 7.87269 16.6833 8.47325 17.0306L9.98604 17.9056C10.0353 17.9419 10.0884 17.9727 10.1444 17.9972L10.1462 17.9982L10.1463 17.998C10.8894 18.3202 12.0147 17.4813 12.5641 16.0322L15.1008 9.34208C15.7201 7.8118 16.0541 6.15908 15.9637 4.6422Z" fill="url(#paint3_linear_29_5366)"/>
<path d="M15.1008 9.34202C15.7201 7.81169 16.0541 6.15897 15.9637 4.64214C15.7815 1.58416 13.8393 0.155738 11.4645 1.33043C8.66267 2.71633 6.33603 7.02096 6.33603 10.7068C6.33603 12.0828 6.66134 13.1689 7.21353 13.8957L9.75017 17.6568C10.4106 18.636 11.9037 17.774 12.5642 16.0321L15.1008 9.34202Z" fill="url(#paint4_linear_29_5366)"/>
<path d="M14.2417 6.14533C14.2417 8.4167 12.8607 11.0553 11.1572 12.0388C9.45368 13.0224 8.07269 11.9784 8.07269 9.70698C8.07269 7.43561 9.45368 4.79701 11.1572 3.81348C12.8607 2.83 14.2417 3.874 14.2417 6.14533Z" fill="url(#paint5_linear_29_5366)"/>
<defs>
<linearGradient id="paint0_linear_29_5366" x1="2.90885" y1="13.8578" x2="18.3207" y2="23.1421" gradientUnits="userSpaceOnUse">
<stop stop-color="#D7D1EB"/>
<stop offset="1" stop-color="#F2EFFA"/>
</linearGradient>
<linearGradient id="paint1_linear_29_5366" x1="2.90883" y1="13.8577" x2="18.3206" y2="23.142" gradientUnits="userSpaceOnUse">
<stop stop-color="#D7D1EB"/>
<stop offset="1" stop-color="#F2EFFA"/>
</linearGradient>
<linearGradient id="paint2_linear_29_5366" x1="2.90884" y1="13.8578" x2="18.3206" y2="23.142" gradientUnits="userSpaceOnUse">
<stop stop-color="#D7D1EB"/>
<stop offset="1" stop-color="#F2EFFA"/>
</linearGradient>
<linearGradient id="paint3_linear_29_5366" x1="7.04585" y1="13.4576" x2="13.9423" y2="1.51269" gradientUnits="userSpaceOnUse">
<stop stop-color="#802129"/>
<stop offset="0.531" stop-color="#FF7A85"/>
<stop offset="0.666" stop-color="#FC7782"/>
<stop offset="0.76" stop-color="#F36F7A"/>
<stop offset="0.842" stop-color="#E4616C"/>
<stop offset="0.917" stop-color="#CE4C57"/>
<stop offset="0.986" stop-color="#B2323D"/>
<stop offset="1" stop-color="#AB2C37"/>
</linearGradient>
<linearGradient id="paint4_linear_29_5366" x1="11.1572" y1="22.1873" x2="11.1572" y2="-6.76826" gradientUnits="userSpaceOnUse">
<stop stop-color="#AB2C37"/>
<stop offset="1" stop-color="#FF7A85"/>
</linearGradient>
<linearGradient id="paint5_linear_29_5366" x1="11.1572" y1="17.5806" x2="11.1572" y2="6.53926" gradientUnits="userSpaceOnUse">
<stop stop-color="#D7D1EB"/>
<stop offset="1" stop-color="#F2EFFA"/>
</linearGradient>
</defs>
</svg>
