<svg width="22" height="25" viewBox="0 0 22 25" fill="none" xmlns="http://www.w3.org/2000/svg">
<path fill-rule="evenodd" clip-rule="evenodd" d="M10.6667 2.47925C9.32049 2.47925 8.22918 3.57055 8.22918 4.91675V5.19828C8.83267 5.18757 9.49487 5.18757 10.2216 5.18758H11.1118C11.8385 5.18757 12.5007 5.18757 13.1042 5.19828V4.91675C13.1042 3.57055 12.0129 2.47925 10.6667 2.47925ZM14.7292 5.272V4.91675C14.7292 2.67309 12.9103 0.854248 10.6667 0.854248C8.42303 0.854248 6.60418 2.67309 6.60418 4.91675V5.272C6.44956 5.28531 6.30014 5.30072 6.15576 5.31856C5.06163 5.45375 4.15962 5.73773 3.39338 6.37365C2.62715 7.00957 2.1818 7.84379 1.84729 8.89427C1.52312 9.9123 1.27773 11.2211 0.969267 12.8663L0.946862 12.9858C0.511585 15.3072 0.168552 17.1366 0.105601 18.5789C0.0410761 20.0572 0.261008 21.2816 1.09493 22.2864C1.92886 23.2912 3.09172 23.733 4.5566 23.942C5.98575 24.1459 7.84704 24.1459 10.2088 24.1459H11.1245C13.4863 24.1459 15.3476 24.1459 16.7768 23.942C18.2416 23.733 19.4045 23.2912 20.2384 22.2864C21.0724 21.2816 21.2923 20.0572 21.2278 18.5789C21.1648 17.1366 20.8218 15.3072 20.3865 12.9858L20.3641 12.8664C20.0556 11.2211 19.8102 9.91231 19.4861 8.89427C19.1516 7.84379 18.7062 7.00957 17.94 6.37365C17.1737 5.73773 16.2717 5.45375 15.1776 5.31856C15.0332 5.30072 14.8838 5.28531 14.7292 5.272ZM6.35502 6.9313C5.42818 7.04581 4.86841 7.26122 4.43117 7.6241C3.99393 7.98698 3.67904 8.49747 3.39569 9.38733C3.1055 10.2986 2.87719 11.5084 2.5564 13.2193C2.10604 15.6213 1.78636 17.3368 1.72906 18.6498C1.67273 19.9403 1.87972 20.6875 2.34538 21.2486C2.81105 21.8097 3.50736 22.1509 4.78614 22.3333C6.08713 22.519 7.83224 22.5209 10.276 22.5209H11.0573C13.5011 22.5209 15.2462 22.519 16.5472 22.3333C17.826 22.1509 18.5223 21.8097 18.988 21.2486C19.4536 20.6875 19.6606 19.9403 19.6043 18.6498C19.547 17.3368 19.2273 15.6213 18.777 13.2193C18.4562 11.5084 18.2279 10.2986 17.9377 9.38733C17.6543 8.49747 17.3394 7.98698 16.9022 7.6241C16.465 7.26122 15.9052 7.04581 14.9783 6.9313C14.0292 6.81403 12.798 6.81258 11.0573 6.81258H10.276C8.53535 6.81258 7.30418 6.81403 6.35502 6.9313Z" fill="#667085"/>
</svg>
