<svg width="23" height="23" viewBox="0 0 23 23" fill="none" xmlns="http://www.w3.org/2000/svg">
<path fill-rule="evenodd" clip-rule="evenodd" d="M5.31869 0.395753C4.34535 0.395722 3.53368 0.395697 2.88934 0.482326C2.20923 0.573764 1.59519 0.774907 1.10177 1.26833C0.608342 1.76176 0.407199 2.37579 0.315761 3.0559C0.229132 3.70024 0.229157 4.51189 0.229188 5.48523V5.59792C0.229157 6.57126 0.229132 7.38294 0.315761 8.02727C0.407199 8.70739 0.608342 9.32142 1.10177 9.81484C1.59519 10.3083 2.20923 10.5094 2.88934 10.6009C3.53368 10.6875 4.34532 10.6875 5.31866 10.6874H5.43135C6.40469 10.6875 7.21637 10.6875 7.86071 10.6009C8.54082 10.5094 9.15485 10.3083 9.64828 9.81484C10.1417 9.32142 10.3428 8.70739 10.4343 8.02727C10.5209 7.38294 10.5209 6.57129 10.5209 5.59795V5.48526C10.5209 4.51192 10.5209 3.70024 10.4343 3.0559C10.3428 2.37579 10.1417 1.76176 9.64828 1.26833C9.15485 0.774907 8.54082 0.573764 7.86071 0.482326C7.21637 0.395697 6.40473 0.395722 5.43139 0.395753H5.31869ZM2.25082 2.41738C2.39199 2.27621 2.60595 2.16005 3.10587 2.09284C3.62915 2.02248 4.33068 2.02076 5.37502 2.02076C6.41937 2.02076 7.12089 2.02248 7.64418 2.09284C8.1441 2.16005 8.35806 2.27621 8.49923 2.41738C8.64041 2.55856 8.75657 2.77251 8.82378 3.27243C8.89413 3.79572 8.89586 4.49724 8.89586 5.54159C8.89586 6.58593 8.89413 7.28746 8.82378 7.81075C8.75657 8.31066 8.64041 8.52462 8.49923 8.6658C8.35806 8.80697 8.1441 8.92313 7.64418 8.99034C7.12089 9.0607 6.41937 9.06242 5.37502 9.06242C4.33068 9.06242 3.62915 9.0607 3.10587 8.99034C2.60595 8.92313 2.39199 8.80697 2.25082 8.6658C2.10964 8.52462 1.99348 8.31066 1.92627 7.81075C1.85592 7.28746 1.85419 6.58593 1.85419 5.54159C1.85419 4.49724 1.85592 3.79572 1.92627 3.27243C1.99348 2.77251 2.10964 2.55856 2.25082 2.41738Z" fill="#667085"/>
<path fill-rule="evenodd" clip-rule="evenodd" d="M17.2354 12.3124C16.262 12.3124 15.4504 12.3124 14.806 12.399C14.1259 12.4904 13.5119 12.6916 13.0184 13.185C12.525 13.6784 12.3239 14.2925 12.2324 14.9726C12.1458 15.6169 12.1458 16.4286 12.1459 17.4019V17.5146C12.1458 18.4879 12.1458 19.2996 12.2324 19.9439C12.3239 20.6241 12.525 21.2381 13.0184 21.7315C13.5119 22.2249 14.1259 22.4261 14.806 22.5175C15.4503 22.6042 16.262 22.6041 17.2353 22.6041H17.348C18.3213 22.6041 19.1331 22.6042 19.7774 22.5175C20.4575 22.4261 21.0715 22.2249 21.5649 21.7315C22.0584 21.2381 22.2595 20.6241 22.351 19.9439C22.4376 19.2996 22.4376 18.488 22.4375 17.5147V17.4019C22.4376 16.4286 22.4376 15.6169 22.351 14.9726C22.2595 14.2925 22.0584 13.6784 21.5649 13.185C21.0715 12.6916 20.4575 12.4904 19.7774 12.399C19.133 12.3124 18.3214 12.3124 17.348 12.3124H17.2354ZM14.1675 14.334C14.3087 14.1929 14.5226 14.0767 15.0225 14.0095C15.5458 13.9391 16.2473 13.9374 17.2917 13.9374C18.336 13.9374 19.0376 13.9391 19.5609 14.0095C20.0608 14.0767 20.2747 14.1929 20.4159 14.334C20.5571 14.4752 20.6732 14.6892 20.7404 15.1891C20.8108 15.7124 20.8125 16.4139 20.8125 17.4583C20.8125 18.5026 20.8108 19.2041 20.7404 19.7274C20.6732 20.2273 20.5571 20.4413 20.4159 20.5825C20.2747 20.7236 20.0608 20.8398 19.5609 20.907C19.0376 20.9774 18.336 20.9791 17.2917 20.9791C16.2473 20.9791 15.5458 20.9774 15.0225 20.907C14.5226 20.8398 14.3087 20.7236 14.1675 20.5825C14.0263 20.4413 13.9101 20.2273 13.8429 19.7274C13.7726 19.2041 13.7709 18.5026 13.7709 17.4583C13.7709 16.4139 13.7726 15.7124 13.8429 15.1891C13.9101 14.6892 14.0263 14.4752 14.1675 14.334Z" fill="#667085"/>
<path fill-rule="evenodd" clip-rule="evenodd" d="M5.31869 12.3124H5.43136C6.40471 12.3124 7.21636 12.3124 7.86071 12.399C8.54082 12.4904 9.15485 12.6916 9.64828 13.185C10.1417 13.6784 10.3428 14.2925 10.4343 14.9726C10.5209 15.6169 10.5209 16.4286 10.5209 17.4019V17.5146C10.5209 18.4879 10.5209 19.2996 10.4343 19.9439C10.3428 20.6241 10.1417 21.2381 9.64828 21.7315C9.15485 22.2249 8.54082 22.4261 7.86071 22.5175C7.21638 22.6042 6.40474 22.6041 5.43142 22.6041H5.3187C4.34537 22.6041 3.53367 22.6042 2.88934 22.5175C2.20923 22.4261 1.59519 22.2249 1.10177 21.7315C0.608342 21.2381 0.407199 20.6241 0.315761 19.9439C0.229132 19.2996 0.229157 18.488 0.229188 17.5146V17.4019C0.229157 16.4286 0.229132 15.6169 0.315761 14.9726C0.407199 14.2925 0.608342 13.6784 1.10177 13.185C1.59519 12.6916 2.20923 12.4904 2.88934 12.399C3.53368 12.3124 4.34534 12.3124 5.31869 12.3124ZM3.10587 14.0095C2.60595 14.0767 2.39199 14.1929 2.25082 14.334C2.10964 14.4752 1.99348 14.6892 1.92627 15.1891C1.85592 15.7124 1.85419 16.4139 1.85419 17.4583C1.85419 18.5026 1.85592 19.2041 1.92627 19.7274C1.99348 20.2273 2.10964 20.4413 2.25082 20.5825C2.39199 20.7236 2.60595 20.8398 3.10587 20.907C3.62915 20.9774 4.33068 20.9791 5.37502 20.9791C6.41937 20.9791 7.12089 20.9774 7.64418 20.907C8.1441 20.8398 8.35806 20.7236 8.49923 20.5825C8.64041 20.4413 8.75657 20.2273 8.82378 19.7274C8.89413 19.2041 8.89586 18.5026 8.89586 17.4583C8.89586 16.4139 8.89413 15.7124 8.82378 15.1891C8.75657 14.6892 8.64041 14.4752 8.49923 14.334C8.35806 14.1929 8.1441 14.0767 7.64418 14.0095C7.12089 13.9391 6.41937 13.9374 5.37502 13.9374C4.33068 13.9374 3.62915 13.9391 3.10587 14.0095Z" fill="#667085"/>
<path fill-rule="evenodd" clip-rule="evenodd" d="M17.2354 0.395753C16.262 0.395722 15.4503 0.395697 14.806 0.482326C14.1259 0.573764 13.5119 0.774907 13.0184 1.26833C12.525 1.76176 12.3239 2.37579 12.2324 3.0559C12.1458 3.70025 12.1458 4.5119 12.1459 5.48526V5.59792C12.1458 6.57127 12.1458 7.38293 12.2324 8.02727C12.3239 8.70739 12.525 9.32142 13.0184 9.81484C13.5119 10.3083 14.1259 10.5094 14.806 10.6009C15.4503 10.6875 16.262 10.6875 17.2353 10.6874H17.348C18.3214 10.6875 19.133 10.6875 19.7774 10.6009C20.4575 10.5094 21.0715 10.3083 21.5649 9.81484C22.0584 9.32142 22.2595 8.70739 22.351 8.02727C22.4376 7.38294 22.4376 6.57129 22.4375 5.59795V5.48526C22.4376 4.51192 22.4376 3.70024 22.351 3.0559C22.2595 2.37579 22.0584 1.76176 21.5649 1.26833C21.0715 0.774907 20.4575 0.573764 19.7774 0.482326C19.133 0.395697 18.3214 0.395722 17.3481 0.395753H17.2354ZM14.1675 2.41738C14.3087 2.27621 14.5226 2.16005 15.0225 2.09284C15.5458 2.02248 16.2473 2.02076 17.2917 2.02076C18.336 2.02076 19.0376 2.02248 19.5609 2.09284C20.0608 2.16005 20.2747 2.27621 20.4159 2.41738C20.5571 2.55856 20.6732 2.77251 20.7404 3.27243C20.8108 3.79572 20.8125 4.49724 20.8125 5.54159C20.8125 6.58593 20.8108 7.28746 20.7404 7.81075C20.6732 8.31066 20.5571 8.52462 20.4159 8.6658C20.2747 8.80697 20.0608 8.92313 19.5609 8.99034C19.0376 9.0607 18.336 9.06242 17.2917 9.06242C16.2473 9.06242 15.5458 9.0607 15.0225 8.99034C14.5226 8.92313 14.3087 8.80697 14.1675 8.6658C14.0263 8.52462 13.9101 8.31066 13.8429 7.81075C13.7726 7.28746 13.7709 6.58593 13.7709 5.54159C13.7709 4.49724 13.7726 3.79572 13.8429 3.27243C13.9101 2.77251 14.0263 2.55856 14.1675 2.41738Z" fill="#667085"/>
</svg>
