<svg width="26" height="27" viewBox="0 0 26 27" fill="none" xmlns="http://www.w3.org/2000/svg">
<path fill-rule="evenodd" clip-rule="evenodd" d="M13 1.85425C10.1581 1.85425 7.8542 4.15812 7.8542 7.00008C7.8542 9.84205 10.1581 12.1459 13 12.1459C15.842 12.1459 18.1459 9.84205 18.1459 7.00008C18.1459 4.15812 15.842 1.85425 13 1.85425ZM9.4792 7.00008C9.4792 5.05558 11.0555 3.47925 13 3.47925C14.9445 3.47925 16.5209 5.05558 16.5209 7.00008C16.5209 8.94458 14.9445 10.5209 13 10.5209C11.0555 10.5209 9.4792 8.94458 9.4792 7.00008Z" fill="#667085"/>
<path fill-rule="evenodd" clip-rule="evenodd" d="M13 13.7709C10.7908 13.7709 8.75068 14.2809 7.2347 15.1472C5.7417 16.0003 4.6042 17.3027 4.6042 18.9167C4.6042 20.5308 5.7417 21.8332 7.2347 22.6863C8.75068 23.5526 10.7908 24.0626 13 24.0626C15.2093 24.0626 17.2494 23.5526 18.7654 22.6863C20.2584 21.8332 21.3959 20.5308 21.3959 18.9167C21.3959 17.3027 20.2584 16.0003 18.7654 15.1472C17.2494 14.2809 15.2093 13.7709 13 13.7709ZM6.2292 18.9167C6.2292 18.1375 6.78929 17.2733 8.04092 16.5581C9.26957 15.856 11.0212 15.3959 13 15.3959C14.9789 15.3959 16.7305 15.856 17.9591 16.5581C19.2108 17.2733 19.7709 18.1375 19.7709 18.9167C19.7709 19.696 19.2108 20.5602 17.9591 21.2754C16.7305 21.9775 14.9789 22.4376 13 22.4376C11.0212 22.4376 9.26957 21.9775 8.04092 21.2754C6.78929 20.5602 6.2292 19.696 6.2292 18.9167Z" fill="#667085"/>
</svg>
