<svg width="27" height="27" viewBox="0 0 27 27" fill="none" xmlns="http://www.w3.org/2000/svg">
<path fill-rule="evenodd" clip-rule="evenodd" d="M7.31869 2.39575C6.34535 2.39572 5.53368 2.3957 4.88934 2.48233C4.20923 2.57376 3.59519 2.77491 3.10177 3.26833C2.60834 3.76176 2.4072 4.37579 2.31576 5.0559C2.22913 5.70024 2.22916 6.51189 2.22919 7.48523V7.59792C2.22916 8.57126 2.22913 9.38294 2.31576 10.0273C2.4072 10.7074 2.60834 11.3214 3.10177 11.8148C3.59519 12.3083 4.20923 12.5094 4.88934 12.6009C5.53368 12.6875 6.34532 12.6875 7.31866 12.6874H7.43135C8.40469 12.6875 9.21637 12.6875 9.86071 12.6009C10.5408 12.5094 11.1549 12.3083 11.6483 11.8148C12.1417 11.3214 12.3428 10.7074 12.4343 10.0273C12.5209 9.38294 12.5209 8.57129 12.5209 7.59795V7.48526C12.5209 6.51192 12.5209 5.70024 12.4343 5.0559C12.3428 4.37579 12.1417 3.76176 11.6483 3.26833C11.1549 2.77491 10.5408 2.57376 9.86071 2.48233C9.21637 2.3957 8.40473 2.39572 7.43139 2.39575H7.31869ZM4.25082 4.41738C4.39199 4.27621 4.60595 4.16005 5.10587 4.09284C5.62915 4.02248 6.33068 4.02076 7.37502 4.02076C8.41937 4.02076 9.12089 4.02248 9.64418 4.09284C10.1441 4.16005 10.3581 4.27621 10.4992 4.41738C10.6404 4.55856 10.7566 4.77251 10.8238 5.27243C10.8941 5.79572 10.8959 6.49724 10.8959 7.54159C10.8959 8.58593 10.8941 9.28746 10.8238 9.81075C10.7566 10.3107 10.6404 10.5246 10.4992 10.6658C10.3581 10.807 10.1441 10.9231 9.64418 10.9903C9.12089 11.0607 8.41937 11.0624 7.37502 11.0624C6.33068 11.0624 5.62915 11.0607 5.10587 10.9903C4.60595 10.9231 4.39199 10.807 4.25082 10.6658C4.10964 10.5246 3.99348 10.3107 3.92627 9.81075C3.85592 9.28746 3.85419 8.58593 3.85419 7.54159C3.85419 6.49724 3.85592 5.79572 3.92627 5.27243C3.99348 4.77251 4.10964 4.55856 4.25082 4.41738Z" fill="#667085"/>
<path fill-rule="evenodd" clip-rule="evenodd" d="M19.2354 14.3124C18.262 14.3124 17.4504 14.3124 16.806 14.399C16.1259 14.4904 15.5119 14.6916 15.0184 15.185C14.525 15.6784 14.3239 16.2925 14.2324 16.9726C14.1458 17.6169 14.1458 18.4286 14.1459 19.4019V19.5146C14.1458 20.4879 14.1458 21.2996 14.2324 21.9439C14.3239 22.6241 14.525 23.2381 15.0184 23.7315C15.5119 24.2249 16.1259 24.4261 16.806 24.5175C17.4503 24.6042 18.262 24.6041 19.2353 24.6041H19.348C20.3213 24.6041 21.1331 24.6042 21.7774 24.5175C22.4575 24.4261 23.0715 24.2249 23.5649 23.7315C24.0584 23.2381 24.2595 22.6241 24.351 21.9439C24.4376 21.2996 24.4376 20.488 24.4375 19.5147V19.4019C24.4376 18.4286 24.4376 17.6169 24.351 16.9726C24.2595 16.2925 24.0584 15.6784 23.5649 15.185C23.0715 14.6916 22.4575 14.4904 21.7774 14.399C21.133 14.3124 20.3214 14.3124 19.348 14.3124H19.2354ZM16.1675 16.334C16.3087 16.1929 16.5226 16.0767 17.0225 16.0095C17.5458 15.9391 18.2473 15.9374 19.2917 15.9374C20.336 15.9374 21.0376 15.9391 21.5609 16.0095C22.0608 16.0767 22.2747 16.1929 22.4159 16.334C22.5571 16.4752 22.6732 16.6892 22.7404 17.1891C22.8108 17.7124 22.8125 18.4139 22.8125 19.4583C22.8125 20.5026 22.8108 21.2041 22.7404 21.7274C22.6732 22.2273 22.5571 22.4413 22.4159 22.5825C22.2747 22.7236 22.0608 22.8398 21.5609 22.907C21.0376 22.9774 20.336 22.9791 19.2917 22.9791C18.2473 22.9791 17.5458 22.9774 17.0225 22.907C16.5226 22.8398 16.3087 22.7236 16.1675 22.5825C16.0263 22.4413 15.9101 22.2273 15.8429 21.7274C15.7726 21.2041 15.7709 20.5026 15.7709 19.4583C15.7709 18.4139 15.7726 17.7124 15.8429 17.1891C15.9101 16.6892 16.0263 16.4752 16.1675 16.334Z" fill="#667085"/>
<path fill-rule="evenodd" clip-rule="evenodd" d="M7.31869 14.3124H7.43136C8.40471 14.3124 9.21636 14.3124 9.86071 14.399C10.5408 14.4904 11.1549 14.6916 11.6483 15.185C12.1417 15.6784 12.3428 16.2925 12.4343 16.9726C12.5209 17.6169 12.5209 18.4286 12.5209 19.4019V19.5146C12.5209 20.4879 12.5209 21.2996 12.4343 21.9439C12.3428 22.6241 12.1417 23.2381 11.6483 23.7315C11.1549 24.2249 10.5408 24.4261 9.86071 24.5175C9.21638 24.6042 8.40474 24.6041 7.43142 24.6041H7.3187C6.34537 24.6041 5.53367 24.6042 4.88934 24.5175C4.20923 24.4261 3.59519 24.2249 3.10177 23.7315C2.60834 23.2381 2.4072 22.6241 2.31576 21.9439C2.22913 21.2996 2.22916 20.488 2.22919 19.5146V19.4019C2.22916 18.4286 2.22913 17.6169 2.31576 16.9726C2.4072 16.2925 2.60834 15.6784 3.10177 15.185C3.59519 14.6916 4.20923 14.4904 4.88934 14.399C5.53368 14.3124 6.34534 14.3124 7.31869 14.3124ZM5.10587 16.0095C4.60595 16.0767 4.39199 16.1929 4.25082 16.334C4.10964 16.4752 3.99348 16.6892 3.92627 17.1891C3.85592 17.7124 3.85419 18.4139 3.85419 19.4583C3.85419 20.5026 3.85592 21.2041 3.92627 21.7274C3.99348 22.2273 4.10964 22.4413 4.25082 22.5825C4.39199 22.7236 4.60595 22.8398 5.10587 22.907C5.62915 22.9774 6.33068 22.9791 7.37502 22.9791C8.41937 22.9791 9.12089 22.9774 9.64418 22.907C10.1441 22.8398 10.3581 22.7236 10.4992 22.5825C10.6404 22.4413 10.7566 22.2273 10.8238 21.7274C10.8941 21.2041 10.8959 20.5026 10.8959 19.4583C10.8959 18.4139 10.8941 17.7124 10.8238 17.1891C10.7566 16.6892 10.6404 16.4752 10.4992 16.334C10.3581 16.1929 10.1441 16.0767 9.64418 16.0095C9.12089 15.9391 8.41937 15.9374 7.37502 15.9374C6.33068 15.9374 5.62915 15.9391 5.10587 16.0095Z" fill="#667085"/>
<path fill-rule="evenodd" clip-rule="evenodd" d="M19.2354 2.39575C18.262 2.39572 17.4503 2.3957 16.806 2.48233C16.1259 2.57376 15.5119 2.77491 15.0184 3.26833C14.525 3.76176 14.3239 4.37579 14.2324 5.0559C14.1458 5.70025 14.1458 6.5119 14.1459 7.48526V7.59792C14.1458 8.57127 14.1458 9.38293 14.2324 10.0273C14.3239 10.7074 14.525 11.3214 15.0184 11.8148C15.5119 12.3083 16.1259 12.5094 16.806 12.6009C17.4503 12.6875 18.262 12.6875 19.2353 12.6874H19.348C20.3214 12.6875 21.133 12.6875 21.7774 12.6009C22.4575 12.5094 23.0715 12.3083 23.5649 11.8148C24.0584 11.3214 24.2595 10.7074 24.351 10.0273C24.4376 9.38294 24.4376 8.57129 24.4375 7.59795V7.48526C24.4376 6.51192 24.4376 5.70024 24.351 5.0559C24.2595 4.37579 24.0584 3.76176 23.5649 3.26833C23.0715 2.77491 22.4575 2.57376 21.7774 2.48233C21.133 2.3957 20.3214 2.39572 19.3481 2.39575H19.2354ZM16.1675 4.41738C16.3087 4.27621 16.5226 4.16005 17.0225 4.09284C17.5458 4.02248 18.2473 4.02076 19.2917 4.02076C20.336 4.02076 21.0376 4.02248 21.5609 4.09284C22.0608 4.16005 22.2747 4.27621 22.4159 4.41738C22.5571 4.55856 22.6732 4.77251 22.7404 5.27243C22.8108 5.79572 22.8125 6.49724 22.8125 7.54159C22.8125 8.58593 22.8108 9.28746 22.7404 9.81075C22.6732 10.3107 22.5571 10.5246 22.4159 10.6658C22.2747 10.807 22.0608 10.9231 21.5609 10.9903C21.0376 11.0607 20.336 11.0624 19.2917 11.0624C18.2473 11.0624 17.5458 11.0607 17.0225 10.9903C16.5226 10.9231 16.3087 10.807 16.1675 10.6658C16.0263 10.5246 15.9101 10.3107 15.8429 9.81075C15.7726 9.28746 15.7709 8.58593 15.7709 7.54159C15.7709 6.49724 15.7726 5.79572 15.8429 5.27243C15.9101 4.77251 16.0263 4.55856 16.1675 4.41738Z" fill="#667085"/>
</svg>
